# xmcd CD database file
#
# Track frame offsets:
#	150
#	8877
#	18830
#	35080
#	51620
#	71117
#	78065
#	84090
#	101820
#	109950
#	132835
#
# Disc length: 1986 seconds
#
# Revision: 0
# Processed by: cddbd v1.5PL3 Copyright (c) Steve Scherf et al.
# Submitted via: CDex 1.51
#
DISCID=8b07c00b
DTITLE=麻美(高橋美紀) - 魔女でもステディ
DYEAR=1986
DGENRE=JPop
TTITLE0=ロマンチック・メリーゴーランド
TTITLE1=モーニング・デイト
TTITLE2=微熱Whisper
TTITLE3=ポップコーンLOVE
TTITLE4=星のナビゲイトで
TTITLE5=涙のイリュージョン
TTITLE6=いけないゾンビーズ
TTITLE7=Wind
TTITLE8=愛の錬金術
TTITLE9=星に生まれて
TTITLE10=魔女でもステディ
EXTD=YEAR: 1986/09/05
EXTT0=
EXTT1=
EXTT2=
EXTT3=
EXTT4=
EXTT5=
EXTT6=
EXTT7=
EXTT8=
EXTT9=
EXTT10=
PLAYORDER=
